<svg width="547" height="54" viewBox="0 0 547 54" fill="none" xmlns="http://www.w3.org/2000/svg">
<path d="M79.5188 46.8817L57.0462 6.38171C55.0705 2.6999 53.3419 1.71808 48.4028 1.71808H34.0796C29.3875 1.71808 27.6588 2.45444 25.4362 6.38171L2.22268 49.0908C0.987913 51.5453 2.22268 52.2817 6.17392 52.2817C9.3843 52.2817 11.3599 52.2817 13.0886 49.0908L33.5857 10.0635C34.5735 8.34535 35.3143 8.0999 37.2899 8.0999H38.2778C40.2534 8.0999 41.2412 8.34535 41.982 10.0635C41.982 10.0635 54.0827 33.8726 55.5644 36.8181C56.0583 37.7999 55.3175 38.7817 54.3297 38.7817L40.2534 39.2726C39.0186 39.2726 38.0308 40.2544 38.0308 41.4817V42.9544C38.0308 44.1817 39.0186 45.1635 40.2534 45.1635L56.3053 45.6544C58.7748 45.6544 61.2444 47.1272 62.4791 49.3363C63.9608 52.0363 67.9121 52.5272 73.592 52.5272C80.5067 52.2817 81.9884 51.2999 79.5188 46.8817Z" fill="#232323"/>
<path d="M91.6195 46.8817V7.11811C91.6195 2.45447 92.6073 1.47266 98.7811 1.47266H100.51C106.437 1.47266 107.424 2.45447 107.424 7.11811V46.8817C107.424 51.5454 106.437 52.2817 100.51 52.2817H98.7811C92.3604 52.2817 91.6195 51.5454 91.6195 46.8817Z" fill="#232323"/>
<path d="M118.043 27.2454C118.043 10.5545 126.193 1.47265 155.086 1.71811C167.681 1.71811 177.312 3.43629 179.535 3.68174C182.251 4.17265 182.498 4.66356 182.498 7.36356C182.498 10.309 181.757 10.7999 179.535 10.5545C174.596 9.81811 165.952 8.59083 155.827 8.59083C140.022 8.59083 134.342 13.009 134.342 26.9999C134.342 43.6908 142.492 45.8999 154.839 45.8999C160.272 45.8999 163.977 45.6545 166.446 45.1636C168.669 44.9181 169.41 43.9363 169.41 41.9727V35.0999C169.41 33.1363 168.916 32.1545 166.693 32.1545L159.038 31.4181C156.568 31.1727 156.321 30.6817 156.321 27.9817C156.321 25.7726 156.568 24.7908 159.038 24.7908H177.559C183.239 24.7908 184.474 26.0181 184.474 30.6817V43.6908C184.474 47.3727 183.98 49.3363 180.276 50.3181C174.843 51.5454 163.236 52.2817 157.309 52.2817C126.934 52.2817 118.043 45.8999 118.043 27.2454Z" fill="#232323"/>
<path d="M202.995 52.2817C196.822 52.2817 195.587 51.0545 195.587 46.1454V7.85447C195.587 2.94538 196.822 1.47266 202.995 1.47266H249.67C252.139 1.47266 252.633 2.45447 252.633 4.90902C252.633 7.60902 252.386 8.59084 249.67 8.59084H214.602C212.38 8.59084 211.392 9.57266 211.392 11.5363V19.3908C211.392 21.3545 212.133 22.3363 214.602 22.3363H239.791C242.261 22.3363 242.755 23.3181 242.755 25.7727C242.755 28.4727 242.261 29.4545 239.791 29.4545H214.602C212.38 29.4545 211.392 30.4363 211.392 32.3999V42.2181C211.392 44.1817 212.133 45.1636 214.602 45.1636H251.645C254.115 45.1636 254.609 46.1454 254.609 48.5999C254.609 51.5454 254.115 52.2817 251.645 52.2817H202.995Z" fill="#232323"/>
<path d="M317.828 42.9545C319.31 45.409 320.051 45.8999 322.026 45.8999C324.249 45.8999 324.743 45.1636 324.743 42.709V4.66356C324.743 2.20902 326.472 1.71811 329.435 1.71811C332.892 1.71811 334.127 2.20902 334.127 4.66356V45.8999C334.127 50.809 331.905 52.2817 326.472 52.2817H311.901C306.715 52.2817 303.999 50.0727 301.529 45.8999L280.291 11.0454C278.81 8.59084 278.069 8.09993 276.093 8.09993C273.871 8.09993 273.377 8.83629 273.377 11.2908V49.5817C273.377 52.0363 272.142 52.5272 268.685 52.5272C265.474 52.5272 263.993 52.2817 263.993 49.5817V8.09993C263.993 3.19084 266.215 1.47266 271.401 1.47266H285.971C290.91 1.47266 293.38 3.19084 295.602 6.87266L317.828 42.9545Z" fill="#232323"/>
<path d="M344.746 26.9999C344.746 10.5544 352.401 1.71808 379.566 1.71808C392.408 1.71808 401.792 3.19081 404.015 3.68172C406.484 4.17262 406.978 4.66353 406.978 7.36353C406.978 10.309 406.237 11.0454 404.015 10.5544C400.063 10.0635 392.408 8.59081 382.777 8.59081C364.749 8.59081 360.798 14.4817 360.798 26.9999C360.798 39.5181 364.749 45.409 382.777 45.409C392.408 45.409 400.063 44.1817 404.015 43.4454C406.237 42.9544 406.978 43.6908 406.978 46.6363C406.978 49.5817 406.484 49.8272 404.015 50.3181C401.792 50.809 392.408 52.2817 379.566 52.2817C352.648 52.2817 344.746 43.4454 344.746 26.9999Z" fill="#232323"/>
<path d="M425.747 52.2817C419.573 52.2817 418.338 51.0545 418.338 46.1454V7.85447C418.338 2.94538 419.573 1.47266 425.747 1.47266H472.421C474.89 1.47266 475.384 2.45447 475.384 4.90902C475.384 7.60902 475.137 8.59084 472.421 8.59084H437.353C435.131 8.59084 434.143 9.57266 434.143 11.5363V19.3908C434.143 21.3545 434.884 22.3363 437.353 22.3363H462.543C465.012 22.3363 465.506 23.3181 465.506 25.7727C465.506 28.4727 465.012 29.4545 462.543 29.4545H437.353C435.131 29.4545 434.143 30.4363 434.143 32.3999V42.2181C434.143 44.1817 434.884 45.1636 437.353 45.1636H474.396C476.866 45.1636 477.36 46.1454 477.36 48.5999C477.36 51.5454 476.866 52.2817 474.396 52.2817H425.747Z" fill="#232323"/>
<path d="M493.411 52.2817C487.238 52.2817 486.003 51.0545 486.003 46.1454V7.85447C486.003 2.94538 487.238 1.47266 493.411 1.47266H540.085C542.555 1.47266 543.049 2.45447 543.049 4.90902C543.049 7.60902 542.802 8.59084 540.085 8.59084H505.018C502.796 8.59084 501.808 9.57266 501.808 11.5363V19.3908C501.808 21.3545 502.549 22.3363 505.018 22.3363H530.207C532.677 22.3363 533.171 23.3181 533.171 25.7727C533.171 28.4727 532.677 29.4545 530.207 29.4545H505.018C502.796 29.4545 501.808 30.4363 501.808 32.3999V42.2181C501.808 44.1817 502.549 45.1636 505.018 45.1636H542.061C544.531 45.1636 545.024 46.1454 545.024 48.5999C545.024 51.5454 544.531 52.2817 542.061 52.2817H493.411Z" fill="#232323"/>
</svg>
