<svg width="34" height="34" viewBox="0 0 34 34" fill="none" xmlns="http://www.w3.org/2000/svg">
<circle cx="16.9791" cy="17.0218" r="13.1107" fill="#F9F9FB"/>
<path d="M17 0C7.60994 0 0 7.60994 0 17C0 26.3901 7.60994 34 17 34C26.3901 34 34 26.3901 34 17C34 7.60994 26.3901 0 17 0ZM25.7231 23.8606C24.1898 23.8606 23.1027 23.735 22.7085 22.9944C22.3794 22.3837 21.7427 22.0069 21.0497 22.0069L16.7401 21.8813C16.398 21.8813 16.1208 21.6041 16.1208 21.2619V20.8894C16.1208 20.5473 16.398 20.2701 16.7401 20.2701L20.5516 20.1445C20.8288 20.1445 21.0064 19.8543 20.8808 19.6074C20.478 18.8148 17.2209 12.3829 17.2209 12.3829C17 11.9368 16.7531 11.8632 16.2334 11.8632H15.9822C15.4624 11.8632 15.2415 11.9368 14.9947 12.3829L9.45936 22.9684C8.99159 23.8563 8.47185 23.8563 7.57962 23.8563C6.54013 23.8563 6.19363 23.6094 6.54013 22.9684L12.8204 11.3997C13.3878 10.3603 13.8599 10.1394 15.1419 10.1394H18.975C20.2614 10.1394 20.7292 10.3862 21.2749 11.3997L27.3083 22.401C27.9493 23.5618 27.5292 23.8606 25.7231 23.8606Z" fill="#A467DE"/>
</svg>
